<svg width="76" height="30" xmlns="http://www.w3.org/2000/svg">
  <path fill-rule="evenodd" clip-rule="evenodd" d="M52.977 24.5487c.8295-.8882 1.6006-1.7138 2.4706-2.069.1947-3.0118 1.7729-5.806 3.4214-8.2839.1522-.2397.3399-.4438.5245-.6447.1551-.1687.308-.3351.4359-.5182 1.2005-1.7243 2.9212-3.76951 4.922-3.76951.8404 0 1.8808.24061 2.7212.96241.3601.3208.4802.4812.6002.802.6003 1.564.8404 1.8447 1.7608 1.8447.2335 0 .5094-.0182.8465-.0404.5295-.035 1.2101-.0799 2.1147-.0799 1.8808 0 3.1213.7218 3.1213 1.4035 0 .4011-.3201.5615-.7203.7219-.2508.0897-.3733.1795-.486.2621-.1389.1018-.2629.1927-.5944.2592-.4785.0767-.9204.1993-1.3695.3239-.4898.1359-.9881.2741-1.5517.3578-.5603.0802-1.0805.0802-1.4807.0802-.16 0-.2801.1203-.3601.4411-1.0405 4.2508-2.401 7.6193-4.8821 10.3462l-.0826.0897c-.9487 1.0315-2.1672 2.3564-3.839 2.3564-.4402 0-.9204-.1203-1.3206-.3208-1.4708-.718-2.6928-1.6142-3.1301-2.5206-1.3121 1.5496-3.209 3.4429-5.1934 3.4429-.2401 0-.4802-.0401-.7203-.0802-1.4806-.3208-2.6011-1.0025-3.3214-1.7644-.3037-.3196-.5152-.6045-.6608-.903-1.2571 1.3678-2.8874 2.7476-4.5814 2.7476-.2401 0-.4802-.0401-.7203-.0802-1.4806-.3208-2.6011-1.0025-3.3214-1.7644-.7232-.7609-.9236-1.3254-.9555-2.3443-1.1644 1.0049-2.777 2.1363-5.4072 3.6275-.5602.3208-1.0804.4411-1.7607.4411-1.2005 0-2.5211-.5213-4.3618-1.4837-1.0005-.5213-1.7208-1.6442-2.161-2.9274-.3201-.9223-.5202-1.8848-.5202-2.8071 0-.5614.0801-1.0827.2401-1.6441.4892-1.7074 1.2415-3.3078 2.17-4.8254l-.0466-.0133c-.3073-.088-.6075-.174-.8028-.174-.2001 0-1.7207.7619-2.8412 1.4838-3.3214 2.1253-6.3227 5.3334-7.3631 10.0654-.1601.7218-.4802 1.2431-1.0805 1.7644-.2801.2406-.6002.3208-.8803.3208-.6403 0-1.0805-.2807-1.8008-1.0827-.44018-.4812-.76031-1.1228-.76031-1.604 0-.9039.56313-1.709 1.12161-2.5074.383-.5476.7639-1.0921.9593-1.6632.8803-2.5264 1.7207-5.0527 2.401-7.6192.2401-.8822.4001-1.8046.4001-2.0051 0-.1757-.0853-.3039-.1729-.4354-.0924-.1387-.1872-.2811-.1872-.4869 0-.5614 1.0004-1.0827 2.0809-1.0827.8803 0 1.6006.4411 1.7207.6416.5202.8822.6403 1.604.6403 2.1654 0 .5133-.0513.847-.0718.9804-.0051.0334-.0083.0543-.0083.0623 0 .0802.04.1203.0801.1203.08 0 .2-.0802.4001-.2406 1.2806-.9625 3.7616-2.6066 5.0822-2.6066 1.1252 0 2.3122.3096 3.1537 1.0377.8055-1.0192 1.6724-2.0037 2.5687-2.9626.8803-.9223 2.441-1.88473 4.5619-1.88473.8003 0 1.8008.1604 2.6811.48121 1.2405.44112 1.6007 1.64412 1.6007 2.68682 0 1.604-1.2005 3.8096-2.1209 4.9324-2.481 3.0477-5.3623 6.0954-8.8837 8.2208-.4002.2406-.4402.2807-.4402.4812 0 .2406.3601 1.0025.7203 1.1629.2401.1203.4802.2005.7603.2005 1.036 0 2.2807-.7765 2.9109-1.1697.1001-.0624.1846-.1151.2504-.1536 1.3094-.7619 2.4071-1.7137 3.4517-2.6196.9348-.8105 1.8272-1.5843 2.791-2.1525.0457-.0275.0905-.0529.1343-.0764.0562-.1437.1127-.2873.1692-.4307l.0003-.0009.0024-.0059c.0852-.2165.1703-.4328.254-.649 1.7607-4.4512 5.2022-10.74713 8.2034-15.83999.1047-.17154.207-.4586.3275-.79657v-.00009c.3866-1.08415.9599-2.6921487 2.3937-2.6921487.271 0 .5094-.0108797.7378-.0213053C50.1328.0092059 50.3346 0 50.5455 0c.8003 0 1.5206.32081 1.6807.681722.2001.441118.3601.802028.3601 1.243138 0 .52132-.16 1.00253-.4402 1.44365-.9036 1.43887-1.835 2.84744-2.7606 4.24726-2.7633 4.17903-5.475 8.27993-7.2436 12.87593-.1433.3719-.292.7188-.4375 1.0581v.0002h-.0001c-.5445 1.2704-1.043 2.4333-1.043 4.3955 0 .7218.2001.8822.3602.8822.08 0 .2-.0401.3201-.1203.8918-.5958 1.643-1.4001 2.3515-2.1587.9113-.9757 1.752-1.8759 2.7309-2.16.2476-.7998.5562-1.5835.8634-2.3638l.0004-.0009c.086-.2186.172-.4368.2564-.6551 1.7607-4.4512 5.2022-10.74713 8.2035-15.83999.1046-.17154.2069-.4586.3274-.79657v-.00005l.0001-.00004c.3865-1.08415.9598-2.6921487 2.3936-2.6921487.271 0 .5094-.0108797.7378-.0213053C59.4167.0092059 59.6185 0 59.8294 0c.8003 0 1.5206.32081 1.6807.681722.2001.441118.3601.802028.3601 1.243138 0 .52132-.16 1.00253-.4402 1.44365-.9036 1.43886-1.835 2.84744-2.7606 4.24725-2.7633 4.17904-5.475 8.27994-7.2436 12.87594-.1434.372-.2921.719-.4376 1.0583-.5445 1.2704-1.043 2.4334-1.043 4.3955 0 .7218.2001.8822.3602.8822.08 0 .2-.0401.3201-.1203.8919-.5958 1.643-1.4001 2.3515-2.1587zM5.78663 8.75527h-.00002l-.00003.00001c-.25741.02276-.75761.067-1.50058.067-1.16049 0-2.32098-.16041-2.92123-.88223-.20009-.24061-.20009-.52132-.20009-.88223 0-.72182.12005-1.52385.32014-1.72435.20008-.20051.44018-.44112.92039-.44112.33045 0 .51239.04341.73319.09609.3407.08128.7739.18462 1.98795.18462 2.08088 0 4.96205-.44111 5.76245-.60152 1.8408-.36091 3.8016-.64162 5.9625-.64162 1.7607 0 4.2818 1.68426 4.2818 2.36598 0 .72182-.2801 1.16294-.8404 1.56395-.2401.1604-.9204.44111-1.3205.44111-.4802 0-.7603-.28071-1.0405-.56142-.12-.1203-.9203-.40101-1.1204-.40101-1.7608 0-3.6816.24061-5.2823.60152.0801.1203.1201.24061.1201.32081 0 .11199-.0499.19896-.3102.65222V8.91311l-.0001.0001c-.2057.35825-.5427.94528-1.0903 1.95419-2.60109 4.8122-4.2818 9.4238-5.40227 15.3187-.12005.6416-.16006 1.4838-.16006 2.2858 0 .9223-.44019 1.4837-1.32056 1.4837-.60025 0-1.48062-.2807-2.561078-.9223-.560236-.3208-.7203035-.9223-.7203035-1.4837 0-.6015.1200505-1.2031.1600675-1.3635C1.72492 20.2912 3.40563 14.9578 5.84665 9.70451c.28012-.60152.32014-.72183.32014-.80203 0-.1203-.08004-.1604-.20009-.1604-.03088 0-.0909.0053-.18005.01319h-.00002zM33.9385 12.0705c0 .3609-.1201.6015-.6003 1.3634-.2097.3328-.2897.5202-.3632.6926-.0949.2223-.179.4196-.5171.8714-1.1605 1.5639-2.6011 3.1279-4.4819 4.8522-.5203.4812-.6003.4812-.6803.4812-.04 0-.1201-.0401-.1201-.1203 0-.1203.04-.2807.4402-1.1228 1.2405-2.6066 2.7612-4.3309 4.4419-6.0152.9204-.9223 1.4806-1.2431 1.6807-1.2431.12 0 .2001.0401.2001.2406zm30.893 1.1629c-.04-.0802-.0801-.1203-.1201-.1203-.12 0-.3601.0401-.6803.4812-1.9608 2.5665-4.922 7.2183-4.922 10.3462 0 .2005.04.7218.2001 1.1629.12.3208.4401.8421.6402.8421.2401 0 .5202-.1203 1.0004-.8421l.159-.2388c2.1085-3.1671 4.2029-6.3129 4.2029-10.1073 0-.4411 0-1.0026-.1601-1.1229-.2001-.1604-.2801-.2807-.3201-.401z" fill="currentColor" />
</svg>
